o p
v -3.500000 0.000000 3.250000
v -3.535356 0.550000 3.464644
v -3.323223 0.000000 3.323223
v -3.550001 0.550000 3.500000
v -3.250000 0.000000 3.500000
v -3.535356 0.550000 3.535356
v -3.323223 0.000000 3.676777
v -3.500000 0.550000 3.550001
v -3.500000 0.000000 3.750000
v -3.464644 0.550000 3.535356
v -3.676777 0.000000 3.676777
v -3.449999 0.550000 3.500000
v -3.750000 0.000000 3.500000
v -3.464644 0.550000 3.464644
v -3.676777 0.000000 3.323223
v -3.500000 0.550000 3.449999
v -3.500000 0.500000 3.449999
v -3.500000 0.315225 3.250000
v -3.500000 0.485935 3.373463
v -3.500000 0.445881 3.308578
v -3.500000 0.385935 3.265224
v -3.464644 0.500000 3.464644
v -3.323223 0.315225 3.323223
v -3.410525 0.485935 3.410525
v -3.364645 0.445881 3.364645
v -3.333988 0.385935 3.333988
v -3.449999 0.500000 3.500000
v -3.250000 0.315225 3.500000
v -3.373463 0.485935 3.500000
v -3.308578 0.445881 3.500000
v -3.265224 0.385935 3.500000
v -3.464644 0.500000 3.535356
v -3.323223 0.315225 3.676777
v -3.410525 0.485935 3.589475
v -3.364645 0.445881 3.635355
v -3.333988 0.385935 3.666012
v -3.500000 0.500000 3.550001
v -3.500000 0.315225 3.750000
v -3.500000 0.485935 3.626537
v -3.500000 0.445881 3.691422
v -3.500000 0.385935 3.734776
v -3.535356 0.500000 3.535356
v -3.676777 0.315225 3.676777
v -3.589475 0.485935 3.589475
v -3.635356 0.445881 3.635355
v -3.666012 0.385935 3.666012
v -3.550001 0.500000 3.500000
v -3.750000 0.315225 3.500000
v -3.626537 0.485935 3.500000
v -3.691422 0.445881 3.500000
v -3.734776 0.385935 3.500000
v -3.535356 0.500000 3.464644
v -3.676777 0.315225 3.323223
v -3.589475 0.485935 3.410525
v -3.635356 0.445881 3.364645
v -3.666012 0.385935 3.333988
vn -0.3827 0.0000 -0.9239
vn 0.9239 0.0000 0.3827
vn 0.3827 0.0000 0.9239
vn -0.3827 0.0000 0.9239
vn -0.9239 0.0000 0.3827
vn -0.9239 0.0000 -0.3827
vn 0.3827 0.0000 -0.9239
vn 0.0000 1.0000 0.0000
vn 0.9239 0.0000 -0.3827
vn 0.0000 -1.0000 0.0000
vn 0.3753 0.1951 -0.9061
vn 0.3182 0.5556 -0.7682
vn 0.2126 0.8315 -0.5133
vn 0.0747 0.9808 -0.1802
vn 0.9061 0.1951 -0.3753
vn 0.7682 0.5556 -0.3182
vn 0.5133 0.8315 -0.2126
vn 0.1802 0.9808 -0.0747
vn 0.9061 0.1951 0.3753
vn 0.7682 0.5556 0.3182
vn 0.5133 0.8315 0.2126
vn 0.1802 0.9808 0.0747
vn 0.3753 0.1951 0.9061
vn 0.3182 0.5556 0.7682
vn 0.2126 0.8315 0.5133
vn 0.0747 0.9808 0.1802
vn -0.3753 0.1951 0.9061
vn -0.3182 0.5556 0.7682
vn -0.2126 0.8315 0.5133
vn -0.0747 0.9808 0.1802
vn -0.9061 0.1951 0.3753
vn -0.7682 0.5556 0.3182
vn -0.5133 0.8315 0.2126
vn -0.1802 0.9808 0.0747
vn -0.9061 0.1951 -0.3753
vn -0.7682 0.5556 -0.3182
vn -0.5133 0.8315 -0.2126
vn -0.1802 0.9808 -0.0747
vn -0.3753 0.1951 -0.9061
vn -0.3182 0.5556 -0.7682
vn -0.2126 0.8315 -0.5133
vn -0.0747 0.9808 -0.1802
s off
f 15//1 53//1 18//1 1//1
f 5//2 28//2 33//2 7//2
f 7//3 33//3 38//3 9//3
f 9//4 38//4 43//4 11//4
f 11//5 43//5 48//5 13//5
f 13//6 48//6 53//6 15//6
f 1//7 18//7 23//7 3//7
f 14//8 16//8 2//8 4//8 6//8 8//8 10//8 12//8
f 3//9 23//9 28//9 5//9
f 1//10 3//10 5//10 7//10 9//10 11//10 13//10 15//10
f 23//11 18//11 21//11 26//11
f 26//12 21//12 20//12 25//12
f 25//13 20//13 19//13 24//13
f 24//14 19//14 17//14 22//14
f 28//15 23//15 26//15 31//15
f 31//16 26//16 25//16 30//16
f 30//17 25//17 24//17 29//17
f 29//18 24//18 22//18 27//18
f 33//19 28//19 31//19 36//19
f 36//20 31//20 30//20 35//20
f 35//21 30//21 29//21 34//21
f 34//22 29//22 27//22 32//22
f 38//23 33//23 36//23 41//23
f 41//24 36//24 35//24 40//24
f 40//25 35//25 34//25 39//25
f 39//26 34//26 32//26 37//26
f 43//27 38//27 41//27 46//27
f 46//28 41//28 40//28 45//28
f 45//29 40//29 39//29 44//29
f 44//30 39//30 37//30 42//30
f 48//31 43//31 46//31 51//31
f 51//32 46//32 45//32 50//32
f 50//33 45//33 44//33 49//33
f 49//34 44//34 42//34 47//34
f 53//35 48//35 51//35 56//35
f 56//36 51//36 50//36 55//36
f 55//37 50//37 49//37 54//37
f 54//38 49//38 47//38 52//38
f 18//39 53//39 56//39 21//39
f 21//40 56//40 55//40 20//40
f 20//41 55//41 54//41 19//41
f 19//42 54//42 52//42 17//42
f 22//7 17//7 16//7 14//7
f 27//9 22//9 14//9 12//9
f 32//2 27//2 12//2 10//2
f 37//3 32//3 10//3 8//3
f 42//4 37//4 8//4 6//4
f 47//5 42//5 6//5 4//5
f 52//6 47//6 4//6 2//6
f 17//1 52//1 2//1 16//1
o r
v -1.000000 0.000000 3.750000
v -1.000000 1.000000 3.750000
v -1.000000 0.000000 3.250000
v -1.000000 1.000000 3.250000
v 0.000000 0.000000 3.750000
v 0.000000 1.000000 3.750000
v 0.000000 0.000000 3.250000
v 0.000000 1.000000 3.250000
v -0.500000 0.000000 3.250000
v -0.500000 0.500000 3.250000
v -0.500000 0.000000 3.750000
v -0.500000 0.500000 3.750000
vn -1.0000 0.0000 0.0000
vn 0.0000 0.0000 -1.0000
vn 1.0000 0.0000 0.0000
vn 0.0000 0.0000 1.0000
vn 0.0000 -1.0000 0.0000
vn 0.7071 0.7071 0.0000
vn -0.7071 0.7071 0.0000
s off
f 57//43 58//43 60//43 59//43
f 65//44 66//44 64//44 63//44
f 63//45 64//45 62//45 61//45
f 67//46 68//46 58//46 57//46
f 65//47 63//47 61//47 67//47
f 66//48 60//48 58//48 68//48
f 64//49 66//49 68//49 62//49
f 59//47 65//47 67//47 57//47
f 61//46 62//46 68//46 67//46
f 59//44 60//44 66//44 65//44
o board
v 4.000000 -1.000000 -4.000000
v 4.000000 -1.000000 4.000000
v -4.000000 -1.000000 3.999999
v -3.999999 -1.000000 -4.000001
v 4.000002 0.000000 -3.999998
v 3.999997 0.000000 4.000002
v -4.000001 0.000000 3.999999
v -4.000000 0.000000 -4.000000
vn 0.0000 -1.0000 0.0000
vn 0.0000 1.0000 0.0000
vn 1.0000 0.0000 0.0000
vn -0.0000 -0.0000 1.0000
vn -1.0000 -0.0000 -0.0000
vn 0.0000 0.0000 -1.0000
s off
f 69//50 70//50 71//50 72//50
f 73//51 76//51 75//51 74//51
f 69//52 73//52 74//52 70//52
f 70//53 74//53 75//53 71//53
f 71//54 75//54 76//54 72//54
f 73//55 69//55 72//55 76//55
o k
v 2.000000 0.000000 3.500000
v 1.853553 0.000000 3.146447
v 1.500000 0.000000 3.000000
v 1.853553 0.000000 3.853553
v 1.500000 0.000000 4.000000
v 1.146447 0.000000 3.853553
v 1.000000 0.000000 3.500000
v 1.146447 0.000000 3.146447
v 1.853553 0.600000 3.853553
v 1.830249 0.753073 3.830249
v 1.732729 0.969552 3.500000
v 1.873190 0.882843 3.500000
v 2.000000 0.600000 3.500000
v 1.967043 0.753073 3.500000
v 1.432957 1.000000 3.500000
v 1.452593 1.000000 3.452593
v 1.567043 1.000000 3.500000
v 1.567043 0.700000 3.500000
v 2.000000 0.300000 3.500000
v 1.732729 0.669552 3.500000
v 1.873190 0.582843 3.500000
v 1.967043 0.453073 3.500000
v 1.853553 0.300000 3.146447
v 1.547407 0.700000 3.452593
v 1.830249 0.453073 3.169751
v 1.763885 0.582843 3.236115
v 1.664564 0.669552 3.335436
v 1.500000 0.300000 3.000000
v 1.500000 0.700000 3.432957
v 1.500000 0.453073 3.032957
v 1.500000 0.582843 3.126810
v 1.500000 0.669552 3.267272
v 1.853553 0.300000 3.853553
v 1.500000 0.300000 4.000000
v 1.146447 0.300000 3.853553
v 1.432957 0.700000 3.500000
v 1.000000 0.300000 3.500000
v 1.267271 0.669552 3.500000
v 1.126810 0.582843 3.500000
v 1.032957 0.453073 3.500000
v 1.452593 0.700000 3.452593
v 1.146447 0.300000 3.146447
v 1.335436 0.669552 3.335436
v 1.236115 0.582843 3.236115
v 1.169751 0.453073 3.169751
v 1.763885 0.882843 3.763885
v 1.664564 0.969552 3.664564
v 1.547407 1.000000 3.547407
v 1.500000 0.753073 3.967043
v 1.500000 0.600000 4.000000
v 1.500000 0.882843 3.873190
v 1.500000 0.969552 3.732728
v 1.500000 1.000000 3.567043
v 1.169751 0.753073 3.830249
v 1.146447 0.600000 3.853553
v 1.236115 0.882843 3.763885
v 1.335436 0.969552 3.664564
v 1.452593 1.000000 3.547407
v 1.032957 0.753073 3.500000
v 1.000000 0.600000 3.500000
v 1.126810 0.882843 3.500000
v 1.267271 0.969552 3.500000
vn 0.9239 0.0000 -0.3827
vn 0.3827 0.0000 0.9239
vn -0.3827 0.0000 -0.9239
vn -0.9239 0.0000 0.3827
vn -0.9239 0.0000 -0.3827
vn 0.9061 0.1951 0.3753
vn 0.0000 -1.0000 0.0000
vn -0.3827 0.0000 0.9239
vn 0.3827 0.0000 -0.9239
vn 0.9239 0.0000 0.3827
vn 0.9061 0.1951 -0.3753
vn 0.7682 0.5556 -0.3182
vn 0.5133 0.8315 -0.2126
vn 0.1802 0.9808 -0.0747
vn 0.3753 0.1951 -0.9061
vn 0.3182 0.5556 -0.7682
vn 0.2126 0.8315 -0.5133
vn 0.0747 0.9808 -0.1802
vn 0.0000 0.0000 -1.0000
vn -0.9061 0.1951 -0.3753
vn -0.7682 0.5556 -0.3182
vn -0.5133 0.8315 -0.2126
vn -0.1802 0.9808 -0.0747
vn -0.3753 0.1951 -0.9061
vn -0.3182 0.5556 -0.7682
vn -0.2126 0.8315 -0.5133
vn -0.0747 0.9808 -0.1802
vn 0.0000 1.0000 -0.0000
vn 0.7682 0.5556 0.3182
vn 0.5133 0.8315 0.2126
vn 0.1802 0.9808 0.0747
vn 0.3753 0.1951 0.9061
vn 0.3182 0.5556 0.7682
vn 0.2126 0.8315 0.5133
vn 0.0747 0.9808 0.1802
vn -0.3753 0.1951 0.9061
vn -0.3182 0.5556 0.7682
vn -0.2126 0.8315 0.5133
vn -0.0747 0.9808 0.1802
vn -0.9061 0.1951 0.3753
vn -0.7682 0.5556 0.3182
vn -0.5133 0.8315 0.2126
vn -0.1802 0.9808 0.0747
s off
f 78//56 99//56 95//56 77//56
f 80//57 109//57 110//57 81//57
f 84//58 118//58 104//58 79//58
f 82//59 111//59 113//59 83//59
f 83//60 113//60 118//60 84//60
f 85//61 89//61 90//61 86//61
f 79//62 78//62 77//62 80//62 81//62 82//62 83//62 84//62
f 81//63 110//63 111//63 82//63
f 79//64 104//64 99//64 78//64
f 77//65 95//65 109//65 80//65
f 95//66 99//66 101//66 98//66
f 98//67 101//67 102//67 97//67
f 97//68 102//68 103//68 96//68
f 96//69 103//69 100//69 94//69
f 99//70 104//70 106//70 101//70
f 101//71 106//71 107//71 102//71
f 102//72 107//72 108//72 103//72
f 103//73 108//73 105//73 100//73
f 113//59 111//59 131//59 136//59
f 116//74 113//74 136//74 135//74
f 112//74 114//74 138//74 91//74
f 111//63 110//63 126//63 131//63
f 98//74 97//74 88//74 90//74
f 94//74 112//74 91//74 93//74
f 96//74 94//74 93//74 87//74
f 110//57 109//57 85//57 126//57
f 114//74 115//74 137//74 138//74
f 109//65 95//65 89//65 85//65
f 115//74 116//74 135//74 137//74
f 95//74 98//74 90//74 89//74
f 118//75 113//75 116//75 121//75
f 121//76 116//76 115//76 120//76
f 120//77 115//77 114//77 119//77
f 119//78 114//78 112//78 117//78
f 104//79 118//79 121//79 106//79
f 106//80 121//80 120//80 107//80
f 107//81 120//81 119//81 108//81
f 108//82 119//82 117//82 105//82
f 97//74 96//74 87//74 88//74
f 112//83 94//83 100//83 105//83 117//83
f 86//84 90//84 88//84 122//84
f 122//85 88//85 87//85 123//85
f 123//86 87//86 93//86 124//86
f 126//87 85//87 86//87 125//87
f 125//88 86//88 122//88 127//88
f 127//89 122//89 123//89 128//89
f 128//90 123//90 124//90 129//90
f 131//91 126//91 125//91 130//91
f 130//92 125//92 127//92 132//92
f 132//93 127//93 128//93 133//93
f 133//94 128//94 129//94 134//94
f 136//95 131//95 130//95 135//95
f 135//96 130//96 132//96 137//96
f 137//97 132//97 133//97 138//97
f 138//98 133//98 134//98 91//98
f 93//83 91//83 134//83 129//83 124//83
o q
v 1.000000 0.000000 3.500000
v 0.853553 0.000000 3.146447
v 0.500000 0.000000 3.000000
v 0.853553 0.000000 3.853553
v 0.500000 0.000000 4.000000
v 0.146447 0.000000 3.853553
v 0.000000 0.000000 3.500000
v 0.146447 0.000000 3.146447
v 0.853553 0.400000 3.853553
v 0.830249 0.553073 3.830249
v 0.732729 0.769552 3.500000
v 0.873190 0.682843 3.500000
v 1.000000 0.400000 3.500000
v 0.967043 0.553073 3.500000
v 0.432957 0.800000 3.500000
v 0.452593 1.000000 3.452593
v 0.567043 0.800000 3.500000
v 0.567043 0.500000 3.500000
v 1.000000 0.100000 3.500000
v 0.732729 0.469552 3.500000
v 0.873190 0.382843 3.500000
v 0.967043 0.253073 3.500000
v 0.853553 0.100000 3.146447
v 0.547407 0.500000 3.452593
v 0.830249 0.253073 3.169751
v 0.763885 0.382843 3.236115
v 0.664564 0.469552 3.335436
v 0.500000 0.100000 3.000000
v 0.500000 0.500000 3.432957
v 0.500000 0.253073 3.032957
v 0.500000 0.382843 3.126810
v 0.500000 0.469552 3.267272
v 0.853553 0.100000 3.853553
v 0.500000 0.100000 4.000000
v 0.146447 0.100000 3.853553
v 0.432957 0.500000 3.500000
v 0.000000 0.100000 3.500000
v 0.267271 0.469552 3.500000
v 0.126810 0.382843 3.500000
v 0.032957 0.253073 3.500000
v 0.452593 0.500000 3.452593
v 0.146447 0.100000 3.146447
v 0.335436 0.469552 3.335436
v 0.236115 0.382843 3.236115
v 0.169751 0.253073 3.169751
v 0.763885 0.682843 3.763885
v 0.664564 0.769552 3.664564
v 0.547407 0.800000 3.547407
v 0.500000 0.553073 3.967043
v 0.500000 0.400000 4.000000
v 0.500000 0.682843 3.873190
v 0.500000 0.769552 3.732728
v 0.500000 0.800000 3.567043
v 0.169751 0.553073 3.830249
v 0.146447 0.400000 3.853553
v 0.236115 0.682843 3.763885
v 0.335436 0.769552 3.664564
v 0.452593 0.800000 3.547407
v 0.032957 0.553073 3.500000
v 0.000000 0.400000 3.500000
v 0.126810 0.682843 3.500000
v 0.267271 0.769552 3.500000
vn 0.9239 0.0000 -0.3827
vn 0.3827 0.0000 0.9239
vn -0.3827 0.0000 -0.9239
vn -0.9239 0.0000 0.3827
vn -0.9239 0.0000 -0.3827
vn 0.9061 0.1951 0.3753
vn 0.0000 -1.0000 0.0000
vn -0.3827 0.0000 0.9239
vn 0.3827 0.0000 -0.9239
vn 0.9239 0.0000 0.3827
vn 0.9061 0.1951 -0.3753
vn 0.7682 0.5556 -0.3182
vn 0.5133 0.8315 -0.2126
vn 0.1802 0.9808 -0.0747
vn 0.3753 0.1951 -0.9061
vn 0.3182 0.5556 -0.7682
vn 0.2126 0.8315 -0.5133
vn 0.0747 0.9808 -0.1802
vn 0.0000 0.0000 -1.0000
vn -0.9061 0.1951 -0.3753
vn -0.7682 0.5556 -0.3182
vn -0.5133 0.8315 -0.2126
vn -0.1802 0.9808 -0.0747
vn -0.3753 0.1951 -0.9061
vn -0.3182 0.5556 -0.7682
vn -0.2126 0.8315 -0.5133
vn -0.0747 0.9808 -0.1802
vn 0.0000 1.0000 0.0000
vn 0.7682 0.5556 0.3182
vn 0.5133 0.8315 0.2126
vn 0.1802 0.9808 0.0747
vn 0.3753 0.1951 0.9061
vn 0.3182 0.5556 0.7682
vn 0.2126 0.8315 0.5133
vn 0.0747 0.9808 0.1802
vn -0.3753 0.1951 0.9061
vn -0.3182 0.5556 0.7682
vn -0.2126 0.8315 0.5133
vn -0.0747 0.9808 0.1802
vn -0.9061 0.1951 0.3753
vn -0.7682 0.5556 0.3182
vn -0.5133 0.8315 0.2126
vn -0.1802 0.9808 0.0747
s off
f 140//99 161//99 157//99 139//99
f 142//100 171//100 172//100 143//100
f 146//101 180//101 166//101 141//101
f 144//102 173//102 175//102 145//102
f 145//103 175//103 180//103 146//103
f 147//104 151//104 152//104 148//104
f 141//105 140//105 139//105 142//105 143//105 144//105 145//105 146//105
f 143//106 172//106 173//106 144//106
f 141//107 166//107 161//107 140//107
f 139//108 157//108 171//108 142//108
f 157//109 161//109 163//109 160//109
f 160//110 163//110 164//110 159//110
f 159//111 164//111 165//111 158//111
f 158//112 165//112 162//112 156//112
f 161//113 166//113 168//113 163//113
f 163//114 168//114 169//114 164//114
f 164//115 169//115 170//115 165//115
f 165//116 170//116 167//116 162//116
f 171//108 157//108 151//108 147//108
f 177//117 178//117 197//117 199//117
f 157//117 160//117 152//117 151//117
f 159//117 158//117 149//117 150//117
f 175//102 173//102 193//102 198//102
f 178//117 175//117 198//117 197//117
f 174//117 176//117 200//117 153//117
f 173//106 172//106 188//106 193//106
f 160//117 159//117 150//117 152//117
f 156//117 174//117 153//117 155//117
f 158//117 156//117 155//117 149//117
f 172//100 171//100 147//100 188//100
f 180//118 175//118 178//118 183//118
f 183//119 178//119 177//119 182//119
f 182//120 177//120 176//120 181//120
f 181//121 176//121 174//121 179//121
f 166//122 180//122 183//122 168//122
f 168//123 183//123 182//123 169//123
f 169//124 182//124 181//124 170//124
f 170//125 181//125 179//125 167//125
f 176//117 177//117 199//117 200//117
f 174//126 156//126 162//126 167//126 179//126
f 148//127 152//127 150//127 184//127
f 184//128 150//128 149//128 185//128
f 185//129 149//129 155//129 186//129
f 188//130 147//130 148//130 187//130
f 187//131 148//131 184//131 189//131
f 189//132 184//132 185//132 190//132
f 190//133 185//133 186//133 191//133
f 193//134 188//134 187//134 192//134
f 192//135 187//135 189//135 194//135
f 194//136 189//136 190//136 195//136
f 195//137 190//137 191//137 196//137
f 198//138 193//138 192//138 197//138
f 197//139 192//139 194//139 199//139
f 199//140 194//140 195//140 200//140
f 200//141 195//141 196//141 153//141
f 155//126 153//126 196//126 191//126 186//126
o b
v -1.500000 1.000000 3.325000
v -1.665165 1.000000 3.134835
v -1.675000 1.000000 3.400000
v -1.565165 1.000000 3.665165
v -1.500000 1.000000 3.775000
v -1.434835 1.000000 3.665165
v -1.325000 1.000000 3.400000
v -1.334835 1.000000 3.134835
v -1.500000 0.800000 3.425000
v -1.665165 0.800000 3.234835
v -1.675000 0.800000 3.500000
v -1.565165 0.800000 3.665165
v -1.500000 0.800000 3.775000
v -1.434835 0.800000 3.665165
v -1.325000 0.800000 3.500000
v -1.334835 0.800000 3.234835
v -1.670083 0.800000 3.417418
v -1.329917 0.800000 3.417418
v -1.500000 0.000000 3.000000
v -1.853553 0.000000 3.146447
v -2.000000 0.000000 3.500000
v -1.853553 0.000000 3.853553
v -1.500000 0.000000 4.000000
v -1.146447 0.000000 3.853553
v -1.000000 0.000000 3.500000
v -1.146447 0.000000 3.146447
v -1.590841 0.900000 3.264848
v -1.500000 0.900000 3.369439
v -1.409159 0.900000 3.264848
v -1.318318 0.900000 3.160257
v -1.312909 0.900000 3.306098
v -1.310205 0.900000 3.406518
v -1.307500 0.900000 3.451939
v -1.464159 0.900000 3.749030
v -1.367909 0.900000 3.597780
v -1.428318 0.900000 3.688621
v -1.535841 0.900000 3.749030
v -1.500000 0.900000 3.809439
v -1.632091 0.900000 3.597780
v -1.571682 0.900000 3.688621
v -1.687091 0.900000 3.306098
v -1.692500 0.900000 3.451939
v -1.689795 0.900000 3.406518
v -1.681682 0.900000 3.160257
v -1.778442 0.600000 3.496898
v -1.871250 0.400000 3.497612
v -1.955015 0.200000 3.498966
v -1.734652 0.600000 3.333554
v -1.788000 0.400000 3.257737
v -1.834332 0.200000 3.188403
v -1.500000 0.600000 3.299951
v -1.500000 0.400000 3.181362
v -1.500000 0.200000 3.071116
v -1.265348 0.600000 3.333554
v -1.212000 0.400000 3.257737
v -1.165668 0.200000 3.188403
v -1.221558 0.600000 3.496898
v -1.128750 0.400000 3.497612
v -1.044985 0.200000 3.498966
v -1.350851 0.600000 3.727542
v -1.269705 0.400000 3.782907
v -1.194169 0.200000 3.831962
v -1.500000 0.600000 3.856835
v -1.500000 0.400000 3.923862
v -1.500000 0.200000 3.981146
v -1.805831 0.200000 3.831962
v -1.730295 0.400000 3.782907
v -1.649149 0.600000 3.727542
vn 0.0000 1.0000 0.0000
vn 0.9782 -0.1992 -0.0582
vn 0.9874 0.1538 -0.0366
vn 0.7248 -0.2798 -0.6296
vn 0.0000 -1.0000 0.0000
vn 0.8189 -0.1811 0.5446
vn 0.8470 -0.1731 0.5026
vn -0.8470 -0.1731 0.5026
vn -0.8189 -0.1811 0.5446
vn -0.9782 -0.1992 -0.0582
vn -0.9802 -0.1961 -0.0264
vn 0.7094 -0.3423 -0.6161
vn -0.7248 -0.2798 -0.6296
vn -0.7094 -0.3423 -0.6161
vn 0.8691 0.3391 0.3600
vn 0.8470 0.1731 0.5026
vn -0.8470 0.1731 0.5026
vn -0.8691 0.3391 0.3600
vn -0.9874 0.1538 -0.0366
vn 0.9802 -0.1961 -0.0264
vn 0.9813 -0.1892 -0.0364
vn 0.9891 0.1446 -0.0266
vn 0.9881 0.1424 -0.0588
vn 0.9237 0.0222 0.3826
vn 0.8189 0.1811 0.5446
vn -0.8470 0.1731 0.5025
vn -0.8189 0.1811 0.5446
vn -0.8470 -0.1731 0.5025
vn -0.9237 0.0222 0.3826
vn -0.9881 0.1424 -0.0588
vn -0.9891 0.1446 -0.0266
vn -0.9813 -0.1892 -0.0364
vn -0.4051 0.1397 0.9035
vn 0.4051 0.1397 0.9035
vn 0.8941 0.2290 0.3850
vn 0.9119 0.1839 -0.3668
vn 0.3446 0.2707 -0.8989
vn -0.3446 0.2707 -0.8989
vn -0.9119 0.1839 -0.3668
vn -0.8941 0.2290 0.3850
vn -0.8811 0.3421 -0.3265
vn -0.8841 0.3753 -0.2785
vn -0.8931 0.4136 -0.1769
vn -0.2696 0.4202 -0.8664
vn -0.1839 0.4494 -0.8742
vn -0.0567 0.4694 -0.8812
vn 0.2696 0.4202 -0.8664
vn 0.1839 0.4494 -0.8742
vn 0.0567 0.4694 -0.8812
vn 0.8811 0.3421 -0.3265
vn 0.8841 0.3753 -0.2785
vn 0.8931 0.4136 -0.1769
vn 0.8364 0.3826 0.3925
vn 0.8077 0.4106 0.4231
vn 0.7723 0.4310 0.4666
vn 0.4528 0.3080 0.8367
vn 0.5446 0.3445 0.7647
vn 0.6921 0.3690 0.6203
vn -0.4528 0.3080 0.8367
vn -0.5446 0.3445 0.7647
vn -0.6921 0.3690 0.6203
vn -0.8364 0.3826 0.3925
vn -0.8077 0.4106 0.4231
vn -0.7723 0.4310 0.4666
s off
f 201//142 202//142 203//142 204//142 205//142 206//142 207//142 208//142
f 218//143 232//143 233//143 215//143
f 208//144 207//144 231//144 230//144
f 227//145 201//145 228//145
f 219//146 226//146 225//146 224//146 223//146 222//146 221//146 220//146
f 215//147 235//147 236//147 214//147
f 234//148 213//148 214//148 236//148
f 237//149 212//149 213//149 238//149
f 212//150 240//150 239//150 211//150
f 211//151 242//151 243//151 217//151
f 241//152 210//152 217//152 243//152
f 210//153 227//153 228//153 209//153
f 228//154 201//154 208//154 229//154
f 216//155 209//155 229//155 230//155
f 233//156 207//156 206//156 235//156
f 206//157 205//157 238//157 234//157
f 205//158 204//158 240//158 237//158
f 239//159 204//159 203//159 242//159
f 203//160 202//160 244//160 241//160
f 244//145 202//145 201//145 227//145
f 232//161 218//161 216//161 231//161
f 209//155 228//155 229//155
f 230//154 229//154 208//154
f 230//162 231//162 216//162
f 207//163 232//163 231//163
f 232//164 207//164 233//164
f 215//165 233//165 235//165
f 235//166 206//166 236//166
f 206//157 234//157 236//157
f 234//148 238//148 213//148
f 205//167 237//167 238//167
f 240//168 204//168 239//168
f 237//169 240//169 212//169
f 211//170 239//170 242//170
f 242//171 203//171 243//171
f 203//172 241//172 243//172
f 241//173 244//173 210//173
f 210//153 244//153 227//153
f 210//146 209//146 217//146
f 265//174 266//174 222//174 223//174
f 218//146 209//146 216//146
f 262//175 265//175 223//175 224//175
f 259//176 262//176 224//176 225//176
f 256//177 259//177 225//177 226//177
f 253//178 256//178 226//178 219//178
f 250//179 253//179 219//179 220//179
f 247//180 250//180 220//180 221//180
f 266//181 247//181 221//181 222//181
f 246//182 249//182 250//182 247//182
f 248//183 249//183 246//183 245//183
f 217//184 248//184 245//184 211//184
f 249//185 252//185 253//185 250//185
f 251//186 252//186 249//186 248//186
f 209//187 251//187 248//187 217//187
f 252//188 255//188 256//188 253//188
f 254//189 255//189 252//189 251//189
f 218//190 254//190 251//190 209//190
f 255//191 258//191 259//191 256//191
f 257//192 258//192 255//192 254//192
f 215//193 257//193 254//193 218//193
f 258//194 261//194 262//194 259//194
f 260//195 261//195 258//195 257//195
f 214//196 260//196 257//196 215//196
f 261//197 264//197 265//197 262//197
f 263//198 264//198 261//198 260//198
f 213//199 263//199 260//199 214//199
f 264//200 267//200 266//200 265//200
f 268//201 267//201 264//201 263//201
f 212//202 268//202 263//202 213//202
f 267//203 246//203 247//203 266//203
f 245//204 246//204 267//204 268//204
f 211//205 245//205 268//205 212//205
o n
v -2.500000 1.000000 3.125000
v -2.665165 1.000000 3.134835
v -2.675000 1.000000 3.400000
v -2.565165 1.000000 3.665165
v -2.500000 1.000000 3.775000
v -2.434835 1.000000 3.665165
v -2.325000 1.000000 3.400000
v -2.334835 1.000000 3.134835
v -2.500000 0.800000 3.225000
v -2.565165 0.800000 3.234835
v -2.675000 0.800000 3.500000
v -2.565165 0.800000 3.665165
v -2.500000 0.800000 3.775000
v -2.434835 0.800000 3.665165
v -2.325000 0.800000 3.500000
v -2.434835 0.800000 3.234835
v -2.670083 0.800000 3.417418
v -2.329917 0.800000 3.417418
v -2.500000 0.000000 3.000000
v -2.853553 0.000000 3.146447
v -3.000000 0.000000 3.500000
v -2.853553 0.000000 3.853553
v -2.500000 0.000000 4.000000
v -2.146446 0.000000 3.853553
v -2.000000 0.000000 3.500000
v -2.146446 0.000000 3.146447
v -2.532583 0.900000 3.179917
v -2.467417 0.900000 3.179917
v -2.500000 0.900000 3.175000
v -2.384835 0.900000 3.184835
v -2.379917 0.900000 3.317417
v -2.327459 0.900000 3.408709
v -2.325000 0.900000 3.450000
v -2.379917 0.900000 3.582582
v -2.434835 0.900000 3.665165
v -2.467417 0.900000 3.720083
v -2.500000 0.900000 3.775000
v -2.532583 0.900000 3.720083
v -2.620083 0.900000 3.582582
v -2.565165 0.900000 3.665165
v -2.620083 0.900000 3.317417
v -2.675000 0.900000 3.450000
v -2.672541 0.900000 3.408709
v -2.615165 0.900000 3.184835
v -2.617624 0.800000 3.326126
v -2.382376 0.800000 3.326126
v -2.835668 0.200000 3.787885
v -2.790704 0.400000 3.693891
v -2.738660 0.600000 3.595311
v -2.955015 0.200000 3.499756
v -2.871250 0.400000 3.499437
v -2.778442 0.600000 3.499268
v -2.953679 0.200000 3.477322
v -2.868546 0.400000 3.454016
v -2.774435 0.600000 3.431967
v -2.734652 0.600000 3.335924
v -2.788000 0.400000 3.259562
v -2.834332 0.200000 3.189193
v -2.820082 0.200000 3.164394
v -2.759147 0.400000 3.209352
v -2.691901 0.600000 3.261526
v -2.595858 0.600000 3.221744
v -2.564693 0.400000 3.128806
v -2.531953 0.200000 3.045047
v -2.468047 0.200000 3.045047
v -2.435307 0.400000 3.128806
v -2.404142 0.600000 3.221744
v -2.308099 0.600000 3.261526
v -2.240853 0.400000 3.209352
v -2.179918 0.200000 3.164394
v -2.165668 0.200000 3.189193
v -2.212000 0.400000 3.259562
v -2.265348 0.600000 3.335924
v -2.225566 0.600000 3.431967
v -2.131454 0.400000 3.454016
v -2.046321 0.200000 3.477322
v -2.044985 0.200000 3.499756
v -2.128750 0.400000 3.499437
v -2.221558 0.600000 3.499268
v -2.261340 0.600000 3.595311
v -2.209296 0.400000 3.693891
v -2.164332 0.200000 3.787885
v -2.350851 0.600000 3.729913
v -2.269705 0.400000 3.784732
v -2.194169 0.200000 3.832752
v -2.596043 0.600000 3.819423
v -2.694454 0.400000 3.845141
v -2.788129 0.200000 3.862589
v -2.211871 0.200000 3.862589
v -2.305546 0.400000 3.845141
v -2.403957 0.600000 3.819423
v -2.500000 0.600000 3.859205
v -2.500000 0.400000 3.925687
v -2.500000 0.200000 3.981936
v -2.649149 0.600000 3.729913
v -2.730295 0.400000 3.784732
v -2.805831 0.200000 3.832752
vn 0.0000 1.0000 0.0000
vn 0.0000 -1.0000 0.0000
vn -0.8652 -0.0646 -0.4972
vn -0.9978 -0.0297 -0.0594
vn -0.8327 -0.0000 0.5537
vn -0.8600 0.0000 0.5103
vn 0.8600 0.0000 0.5103
vn 0.8327 -0.0000 0.5537
vn 0.9978 -0.0297 -0.0594
vn 0.8652 -0.0646 -0.4972
vn 0.1338 -0.4432 -0.8864
vn -0.1338 -0.4432 -0.8864
vn -0.8873 -0.4601 -0.0329
vn -0.9074 0.1879 0.3759
vn 0.9074 0.1879 0.3759
vn 0.8873 -0.4601 -0.0329
vn 0.0525 -0.4675 -0.8824
vn -0.0525 -0.4675 -0.8824
vn 0.0526 -0.4675 -0.8824
vn -0.0526 -0.4675 -0.8824
vn -0.8869 0.4589 -0.0528
vn -0.7808 0.4349 -0.4487
vn 0.0000 0.4627 -0.8865
vn 0.7808 0.4349 -0.4487
vn 0.8869 0.4589 -0.0528
vn 0.7361 0.4676 0.4895
vn 0.7610 0.4658 0.4515
vn -0.7610 0.4658 0.4515
vn -0.7361 0.4676 0.4895
vn -0.9107 0.1682 -0.3772
vn -0.3786 0.1454 -0.9141
vn 0.3786 0.1454 -0.9141
vn 0.9107 0.1682 -0.3772
vn 0.9045 0.2039 0.3746
vn 0.3814 0.0832 0.9207
vn -0.3814 0.0832 0.9207
vn -0.9045 0.2039 0.3746
vn -0.8614 0.3614 0.3568
vn -0.8490 0.3943 0.3517
vn -0.8341 0.4301 0.3455
vn -0.9058 0.4203 -0.0539
vn -0.9210 0.3857 -0.0548
vn -0.9740 0.2190 -0.0580
vn -0.8724 0.3292 -0.3613
vn -0.8600 0.3654 -0.3562
vn -0.8412 0.4135 -0.3484
vn -0.7990 0.3884 -0.4591
vn -0.8115 0.3521 -0.4663
vn -0.8518 0.1865 -0.4895
vn -0.3640 0.3085 -0.8788
vn -0.3589 0.3468 -0.8666
vn -0.3502 0.4031 -0.8455
vn 0.0000 0.4214 -0.9069
vn -0.0000 0.3863 -0.9224
vn 0.0000 0.2197 -0.9756
vn 0.3640 0.3085 -0.8788
vn 0.3589 0.3468 -0.8666
vn 0.3502 0.4031 -0.8455
vn 0.7990 0.3884 -0.4591
vn 0.8115 0.3521 -0.4663
vn 0.8518 0.1865 -0.4895
vn 0.8724 0.3292 -0.3613
vn 0.8600 0.3654 -0.3562
vn 0.8412 0.4135 -0.3484
vn 0.9058 0.4203 -0.0539
vn 0.9210 0.3857 -0.0548
vn 0.9740 0.2190 -0.0580
vn 0.8614 0.3614 0.3568
vn 0.8490 0.3943 0.3517
vn 0.8341 0.4301 0.3455
vn 0.7479 0.4397 0.4973
vn 0.7601 0.4084 0.5054
vn 0.8066 0.2483 0.5364
vn 0.7727 0.4391 0.4584
vn 0.7851 0.4083 0.4658
vn 0.8327 0.2501 0.4940
vn 0.3704 0.2515 0.8942
vn 0.3658 0.2936 0.8832
vn 0.3566 0.3625 0.8610
vn -0.3704 0.2515 0.8942
vn -0.3658 0.2936 0.8832
vn -0.3566 0.3625 0.8610
vn -0.7727 0.4391 0.4584
vn -0.7851 0.4083 0.4658
vn -0.8327 0.2501 0.4940
vn -0.7479 0.4397 0.4973
vn -0.7601 0.4084 0.5054
vn -0.8066 0.2483 0.5364
s off
f 269//206 270//206 271//206 272//206 273//206 274//206 275//206 276//206
f 278//207 277//207 284//207 314//207 313//207
f 287//207 294//207 293//207 292//207 291//207 290//207 289//207 288//207
f 278//208 313//208 285//208 311//208 309//208
f 285//209 279//209 310//209 311//209
f 279//210 280//210 308//210 307//210
f 306//211 308//211 280//211 281//211
f 304//212 305//212 281//212 282//212
f 302//213 303//213 282//213 283//213
f 283//214 286//214 300//214 301//214
f 299//215 300//215 286//215 314//215 284//215
f 284//216 277//216 297//216 296//216
f 295//217 297//217 277//217 278//217
f 312//218 309//218 271//218 270//218
f 310//219 307//219 272//219 271//219
f 272//211 306//211 305//211 273//211
f 273//212 304//212 303//212 274//212
f 274//220 302//220 301//220 275//220
f 275//221 299//221 298//221 276//221
f 298//222 296//222 269//222 276//222
f 269//223 295//223 312//223 270//223
f 296//216 297//216 269//216
f 269//217 297//217 295//217
f 284//224 296//224 298//224
f 299//221 284//221 298//221
f 275//215 300//215 299//215
f 301//214 300//214 275//214
f 302//220 283//220 301//220
f 274//213 303//213 302//213
f 304//212 282//212 303//212
f 273//212 305//212 304//212
f 306//211 281//211 305//211
f 307//210 308//210 272//210
f 272//211 308//211 306//211
f 279//219 307//219 310//219
f 311//209 310//209 271//209
f 309//208 311//208 271//208
f 278//218 309//218 312//218
f 295//225 278//225 312//225
f 320//226 279//226 285//226 323//226
f 324//227 285//227 313//227 329//227
f 330//228 313//228 314//228 335//228
f 336//229 314//229 286//229 341//229
f 342//230 286//230 283//230 347//230
f 283//231 282//231 351//231 348//231
f 351//232 282//232 281//232 359//232
f 281//233 280//233 363//233 354//233
f 363//234 280//234 279//234 317//234
f 289//235 321//235 326//235 288//235
f 288//236 327//236 332//236 287//236
f 287//237 333//237 338//237 294//237
f 294//238 339//238 344//238 293//238
f 293//239 345//239 350//239 292//239
f 292//240 357//240 362//240 291//240
f 356//241 290//241 291//241 362//241
f 290//242 315//242 318//242 289//242
f 315//243 316//243 319//243 318//243
f 316//244 317//244 320//244 319//244
f 317//245 279//245 320//245
f 319//246 320//246 323//246 322//246
f 321//247 318//247 319//247 322//247
f 289//248 318//248 321//248
f 321//249 322//249 325//249 326//249
f 322//250 323//250 324//250 325//250
f 323//251 285//251 324//251
f 325//252 324//252 329//252 328//252
f 327//253 326//253 325//253 328//253
f 288//254 326//254 327//254
f 327//255 328//255 331//255 332//255
f 328//256 329//256 330//256 331//256
f 329//257 313//257 330//257
f 331//258 330//258 335//258 334//258
f 333//259 332//259 331//259 334//259
f 287//260 332//260 333//260
f 333//261 334//261 337//261 338//261
f 334//262 335//262 336//262 337//262
f 335//263 314//263 336//263
f 337//264 336//264 341//264 340//264
f 339//265 338//265 337//265 340//265
f 294//266 338//266 339//266
f 339//267 340//267 343//267 344//267
f 340//268 341//268 342//268 343//268
f 341//269 286//269 342//269
f 343//270 342//270 347//270 346//270
f 345//271 344//271 343//271 346//271
f 293//272 344//272 345//272
f 345//273 346//273 349//273 350//273
f 346//274 347//274 348//274 349//274
f 347//275 283//275 348//275
f 348//276 351//276 352//276 349//276
f 349//277 352//277 353//277 350//277
f 350//278 353//278 292//278
f 352//279 351//279 359//279 358//279
f 357//280 353//280 352//280 358//280
f 292//281 353//281 357//281
f 357//282 358//282 361//282 362//282
f 358//283 359//283 360//283 361//283
f 359//284 281//284 360//284
f 355//285 356//285 362//285 361//285
f 360//286 354//286 355//286 361//286
f 281//287 354//287 360//287
f 354//288 363//288 364//288 355//288
f 355//289 364//289 365//289 356//289
f 356//290 365//290 290//290
f 364//291 363//291 317//291 316//291
f 315//292 365//292 364//292 316//292
f 290//293 365//293 315//293
